<svg width="42" height="36" viewBox="0 0 42 36" fill="none" xmlns="http://www.w3.org/2000/svg">
<path d="M10.9062 35.4922C7.57812 35.4922 4.96875 34.3047 3.07812 31.9297C1.20312 29.5391 0.265625 26.1484 0.265625 21.7578V14.1406C0.265625 9.73438 1.19531 6.34375 3.05469 3.96875C4.92969 1.57812 7.53125 0.382812 10.8594 0.382812C14.1875 0.382812 16.7891 1.57812 18.6641 3.96875C20.5391 6.34375 21.4766 9.73438 21.4766 14.1406V21.7578C21.4766 26.1641 20.5469 29.5547 18.6875 31.9297C16.8281 34.3047 14.2344 35.4922 10.9062 35.4922ZM10.9062 33.1484C13.4375 33.1484 15.3594 32.1953 16.6719 30.2891C18 28.3672 18.6641 25.6562 18.6641 22.1562V13.6719C18.6641 10.1719 18 7.47656 16.6719 5.58594C15.3438 3.69531 13.4062 2.75 10.8594 2.75C8.32812 2.75 6.39844 3.69531 5.07031 5.58594C3.74219 7.47656 3.07812 10.1719 3.07812 13.6719V22.1562C3.07812 25.6406 3.75 28.3438 5.09375 30.2656C6.4375 32.1875 8.375 33.1484 10.9062 33.1484ZM26.7422 35V32.9609L32.8828 32.6562V3.78125L26.1328 4.78906V2.82031L35.6953 0.78125V32.6562L41.8125 32.9609V35H26.7422Z" fill="#0F2137"/>
</svg>
