<svg width="49" height="36" viewBox="0 0 49 36" fill="none" xmlns="http://www.w3.org/2000/svg">
<path d="M11.5781 35.4922C8.25 35.4922 5.64062 34.3047 3.75 31.9297C1.875 29.5391 0.9375 26.1484 0.9375 21.7578V14.1406C0.9375 9.73438 1.86719 6.34375 3.72656 3.96875C5.60156 1.57812 8.20312 0.382812 11.5312 0.382812C14.8594 0.382812 17.4609 1.57812 19.3359 3.96875C21.2109 6.34375 22.1484 9.73438 22.1484 14.1406V21.7578C22.1484 26.1641 21.2188 29.5547 19.3594 31.9297C17.5 34.3047 14.9062 35.4922 11.5781 35.4922ZM11.5781 33.1484C14.1094 33.1484 16.0312 32.1953 17.3438 30.2891C18.6719 28.3672 19.3359 25.6562 19.3359 22.1562V13.6719C19.3359 10.1719 18.6719 7.47656 17.3438 5.58594C16.0156 3.69531 14.0781 2.75 11.5312 2.75C9 2.75 7.07031 3.69531 5.74219 5.58594C4.41406 7.47656 3.75 10.1719 3.75 13.6719V22.1562C3.75 25.6406 4.42188 28.3438 5.76562 30.2656C7.10938 32.1875 9.04688 33.1484 11.5781 33.1484ZM27.1328 35V32.8672L38.3125 20.1875C39.6875 18.6094 40.7891 17.2266 41.6172 16.0391C42.4453 14.8359 43.0391 13.7344 43.3984 12.7344C43.7734 11.7344 43.9609 10.75 43.9609 9.78125C43.9609 7.65625 43.3516 5.95313 42.1328 4.67188C40.9297 3.39062 39.1719 2.75 36.8594 2.75C34.4375 2.75 32.5547 3.46875 31.2109 4.90625C29.8672 6.34375 29.1953 8.27344 29.1953 10.6953H26.5703L26.5234 10.5547C26.4766 8.64844 26.8672 6.92969 27.6953 5.39844C28.5391 3.85156 29.75 2.63281 31.3281 1.74219C32.9062 0.835937 34.7734 0.382812 36.9297 0.382812C38.9453 0.382812 40.6875 0.765625 42.1562 1.53125C43.6406 2.29688 44.7812 3.375 45.5781 4.76562C46.3906 6.15625 46.7969 7.79688 46.7969 9.6875C46.7969 10.9531 46.5312 12.2188 46 13.4844C45.4844 14.7344 44.7266 16.0469 43.7266 17.4219C42.7266 18.7969 41.5156 20.2812 40.0938 21.875L30.6953 32.5391L30.7422 32.6562H45.6719L45.8359 27.8281H48.3203V35H27.1328Z" fill="#0F2137"/>
</svg>
