<svg width="47" height="36" viewBox="0 0 47 36" fill="none" xmlns="http://www.w3.org/2000/svg">
<path d="M21.3125 21.7578C21.3125 26.1641 20.375 29.5547 18.5 31.9297C16.6406 34.3047 14.0469 35.4922 10.7188 35.4922C7.40625 35.4922 4.80469 34.3047 2.91406 31.9297C1.03906 29.5391 0.101562 26.1484 0.101562 21.7578V14.1406C0.101562 9.75 1.03125 6.35938 2.89062 3.96875C4.76562 1.57812 7.35938 0.382812 10.6719 0.382812C14 0.382812 16.6016 1.57812 18.4766 3.96875C20.3672 6.35938 21.3125 9.75 21.3125 14.1406V21.7578ZM18.5 13.6719C18.5 10.1719 17.8281 7.48438 16.4844 5.60938C15.1562 3.71875 13.2188 2.77344 10.6719 2.77344C8.14062 2.77344 6.21094 3.71875 4.88281 5.60938C3.55469 7.5 2.89062 10.1875 2.89062 13.6719V22.1797C2.89062 25.6484 3.5625 28.3438 4.90625 30.2656C6.26562 32.1719 8.20312 33.125 10.7188 33.125C13.25 33.125 15.1797 32.1719 16.5078 30.2656C17.8359 28.3594 18.5 25.6641 18.5 22.1797V13.6719ZM32.6719 16.4141H35.9062C38.3906 16.4141 40.2734 15.7969 41.5547 14.5625C42.8359 13.3125 43.4766 11.7109 43.4766 9.75781C43.4766 7.63281 42.875 5.9375 41.6719 4.67188C40.4688 3.40625 38.6875 2.77344 36.3281 2.77344C34.125 2.77344 32.3203 3.42188 30.9141 4.71875C29.5234 6 28.8281 7.69531 28.8281 9.80469H26.2031L26.1562 9.66406C26.0781 7.00781 27.0078 4.79687 28.9453 3.03125C30.8984 1.26563 33.3594 0.382812 36.3281 0.382812C39.3594 0.382812 41.7734 1.21875 43.5703 2.89062C45.3828 4.5625 46.2891 6.88281 46.2891 9.85156C46.2891 11.4609 45.7891 12.9766 44.7891 14.3984C43.7891 15.8047 42.3828 16.8516 40.5703 17.5391C42.6953 18.1484 44.2812 19.1797 45.3281 20.6328C46.3906 22.0703 46.9219 23.7734 46.9219 25.7422C46.9219 28.7734 45.9375 31.1562 43.9688 32.8906C42.0156 34.625 39.5 35.4922 36.4219 35.4922C33.4375 35.4922 30.875 34.6484 28.7344 32.9609C26.6094 31.2578 25.5859 28.8984 25.6641 25.8828L25.7109 25.7422H28.3125C28.3125 27.9141 29.0625 29.6875 30.5625 31.0625C32.0781 32.4375 34.0312 33.125 36.4219 33.125C38.8438 33.125 40.7344 32.5 42.0938 31.25C43.4531 29.9844 44.1328 28.1797 44.1328 25.8359C44.1328 23.4453 43.4219 21.6797 42 20.5391C40.5781 19.3828 38.5469 18.8047 35.9062 18.8047H32.6719V16.4141Z" fill="#0F2137"/>
</svg>
