<svg width="20" height="21" viewBox="0 0 20 21" fill="none" xmlns="http://www.w3.org/2000/svg">
<path d="M10.0004 1.59961C15.1566 1.59961 19.3285 5.77148 19.3285 10.9199C19.3285 16.0684 15.1566 20.248 10.0004 20.248C4.84412 20.248 0.672241 16.0762 0.672241 10.9277C0.672241 5.7793 4.84412 1.59961 10.0004 1.59961Z" fill="#E74D89"/>
<path d="M10 20.9121C4.48438 20.9121 0 16.4355 0 10.9277C0 5.41211 4.48438 0.935547 10 0.935547C15.5156 0.935547 20 5.41211 20 10.9199C20 16.4277 15.5156 20.9121 10 20.9121ZM18.4297 12.2871C18.1406 12.1934 15.7891 11.498 13.1094 11.9199C14.2266 14.9824 14.6797 17.4824 14.7656 17.998C16.6875 16.709 18.0547 14.6621 18.4297 12.2871ZM13.3359 18.7871C13.2109 18.0371 12.7109 15.4277 11.5156 12.3184C11.5 12.3262 11.4766 12.334 11.4609 12.334C6.64062 14.0137 4.91406 17.3496 4.75781 17.6621C6.20312 18.7871 8.02344 19.459 10 19.459C11.1797 19.4668 12.3125 19.2246 13.3359 18.7871ZM3.65625 16.6387C3.85156 16.3105 6.19531 12.4355 10.6016 11.0059C10.7109 10.9668 10.8281 10.9355 10.9375 10.9043C10.7266 10.4199 10.4922 9.93555 10.2422 9.45898C5.97656 10.7324 1.83594 10.6777 1.46094 10.6699C1.46094 10.7559 1.45312 10.8418 1.45312 10.9277C1.46094 13.123 2.28906 15.123 3.65625 16.6387ZM1.64062 9.18555C2.02344 9.19336 5.53906 9.20898 9.53906 8.14648C8.125 5.63086 6.59375 3.52148 6.375 3.2168C3.97656 4.3418 2.19531 6.54492 1.64062 9.18555ZM8 2.63867C8.23438 2.95117 9.78906 5.06055 11.1875 7.63086C14.2266 6.49023 15.5078 4.77148 15.6641 4.55273C14.1562 3.2168 12.1719 2.4043 10 2.4043C9.3125 2.4043 8.64062 2.49023 8 2.63867ZM16.6094 5.53711C16.4297 5.7793 15 7.61523 11.8438 8.9043C12.0391 9.31055 12.2344 9.72461 12.4141 10.1387C12.4766 10.2871 12.5391 10.4355 12.6016 10.5762C15.4453 10.2168 18.2656 10.7949 18.5469 10.8496C18.5234 8.8418 17.8047 6.99023 16.6094 5.53711Z" fill="#B2215A"/>
</svg>
