<svg width="20" height="21" viewBox="0 0 20 21" fill="none" xmlns="http://www.w3.org/2000/svg">
<path d="M10.0001 0.935547C4.47791 0.935547 0 5.41263 0 10.9356C0 15.3539 2.86533 19.1024 6.83867 20.4247C7.33844 20.5172 7.52192 20.2077 7.52192 19.9436C7.52192 19.7052 7.51265 18.9174 7.50834 18.0818C4.72631 18.6867 4.13927 16.9019 4.13927 16.9019C3.68437 15.7461 3.02894 15.4387 3.02894 15.4387C2.12163 14.8181 3.09733 14.8308 3.09733 14.8308C4.10151 14.9014 4.63026 15.8613 4.63026 15.8613C5.52217 17.3901 6.96965 16.9481 7.5403 16.6926C7.63006 16.0463 7.88922 15.6051 8.1752 15.3554C5.95405 15.1026 3.61913 14.2451 3.61913 10.4133C3.61913 9.32155 4.00977 8.42948 4.64947 7.72917C4.54564 7.4773 4.20335 6.4602 4.74635 5.08276C4.74635 5.08276 5.58609 4.814 7.49708 6.10781C8.29476 5.88624 9.15024 5.77512 10.0001 5.77132C10.8499 5.77512 11.7061 5.88624 12.5052 6.10781C14.4139 4.814 15.2525 5.08276 15.2525 5.08276C15.7968 6.4602 15.4544 7.4773 15.3505 7.72917C15.9917 8.42948 16.3797 9.32155 16.3797 10.4133C16.3797 14.2542 14.0403 15.0999 11.8135 15.3475C12.1722 15.6578 12.4918 16.2664 12.4918 17.1993C12.4918 18.5374 12.4802 19.6142 12.4802 19.9436C12.4802 20.2097 12.6602 20.5216 13.1671 20.4234C17.1383 19.0996 20 15.3524 20 10.9356C20 5.41263 15.5227 0.935547 10.0001 0.935547ZM3.74536 15.1809C3.72333 15.2306 3.64517 15.2455 3.57396 15.2113C3.50143 15.1787 3.46069 15.111 3.48421 15.0611C3.50574 15.01 3.58406 14.9957 3.65643 15.03C3.72913 15.0626 3.77053 15.131 3.74536 15.1809ZM4.23725 15.6198C4.18956 15.664 4.09633 15.6435 4.03307 15.5736C3.96766 15.5039 3.9554 15.4106 4.00376 15.3658C4.05294 15.3215 4.14336 15.3422 4.20893 15.412C4.27434 15.4825 4.28709 15.5751 4.23725 15.6198ZM4.57471 16.1814C4.51344 16.2239 4.41325 16.184 4.35132 16.0951C4.29004 16.0062 4.29004 15.8995 4.35264 15.8568C4.41474 15.8141 4.51344 15.8525 4.5762 15.9407C4.6373 16.0312 4.6373 16.1378 4.57471 16.1814ZM5.14542 16.8317C5.09061 16.8922 4.97386 16.8759 4.88841 16.7935C4.80098 16.7128 4.77663 16.5984 4.83161 16.538C4.88709 16.4774 5.0045 16.4944 5.09061 16.5762C5.17738 16.6567 5.20387 16.772 5.14542 16.8317ZM5.88301 17.0513C5.85883 17.1296 5.74639 17.1652 5.63312 17.1319C5.52002 17.0977 5.446 17.0059 5.46885 16.9268C5.49237 16.8479 5.6053 16.8108 5.7194 16.8464C5.83234 16.8806 5.90652 16.9716 5.88301 17.0513ZM6.72242 17.1444C6.72523 17.2269 6.62919 17.2953 6.51029 17.2968C6.39073 17.2994 6.29402 17.2327 6.29269 17.1515C6.29269 17.0682 6.38659 17.0005 6.50615 16.9985C6.62505 16.9962 6.72242 17.0625 6.72242 17.1444ZM7.54704 17.1128C7.56128 17.1933 7.47865 17.2759 7.36058 17.298C7.2445 17.3191 7.13702 17.2695 7.12229 17.1897C7.10788 17.1072 7.192 17.0246 7.30792 17.0032C7.42616 16.9827 7.53197 17.031 7.54704 17.1128Z" fill="#161614"/>
</svg>
