<svg width="19" height="19" viewBox="0 0 19 19" fill="none" xmlns="http://www.w3.org/2000/svg">
<path d="M0.133536 18.35V5.33125H3.68799V18.35H0.133536ZM1.91914 3.65305C1.39067 3.65305 0.937296 3.47504 0.55901 3.11911C0.186402 2.75742 0 2.32521 0 1.8223C0 1.32506 0.186402 0.898421 0.55901 0.542493C0.937296 0.180798 1.39067 0 1.91914 0C2.4475 0 2.89814 0.180798 3.27074 0.542493C3.64903 0.898421 3.83817 1.32506 3.83817 1.8223C3.83817 2.32521 3.64903 2.75742 3.27074 3.11911C2.89814 3.47504 2.4475 3.65305 1.91914 3.65305ZM10.0897 10.8235V18.35H6.53532V5.33125H9.92286V7.62822H10.073C10.3568 6.87102 10.8324 6.27204 11.4998 5.83128C12.1673 5.38496 12.9767 5.16169 13.9279 5.16169C14.8179 5.16169 15.5938 5.3595 16.2557 5.755C16.9177 6.15061 17.4322 6.71558 17.7993 7.45021C18.1664 8.17907 18.35 9.04925 18.35 10.0607V18.35H14.7956V10.7049C14.8011 9.90819 14.6009 9.28663 14.1948 8.84021C13.7887 8.38821 13.2297 8.16216 12.5177 8.16216C12.0394 8.16216 11.6166 8.26668 11.2495 8.47572C10.888 8.68477 10.6042 8.98998 10.3985 9.39115C10.1982 9.78666 10.0953 10.2641 10.0897 10.8235Z" fill="#0077B5"/>
</svg>
